<svg width="305" height="317" viewBox="0 0 305 317" fill="none" xmlns="http://www.w3.org/2000/svg">
<path fill-rule="evenodd" clip-rule="evenodd" d="M162.182 154V84.1818H162.636V83.9091H173.364V118.273H174.273C175.061 117.061 176.152 115.515 177.545 113.636C178.97 111.727 181 110.03 183.636 108.545C186.303 107.03 189.909 106.273 194.455 106.273C200.333 106.273 205.515 107.742 210 110.682C212.892 112.577 215.374 114.983 217.447 117.898C218.814 115.847 220.392 114.123 222.182 112.727C225.242 110.333 228.576 108.667 232.182 107.727C235.818 106.758 239.394 106.273 242.909 106.273C245.152 106.273 247.727 106.545 250.636 107.091C253.576 107.606 256.409 108.682 259.136 110.318C261.894 111.955 264.182 114.424 266 117.727C267.818 121.03 268.727 125.455 268.727 131V170.182H303.636V178.727L270.059 222.758L270.273 222.818C269.456 225.45 268.223 227.844 266.574 230H304.909V240H250.182V239.725C247.763 240.212 245.187 240.455 242.455 240.455C235.727 240.455 229.924 238.97 225.045 236C222.557 234.46 220.36 232.609 218.455 230.447V240H207.727V196.364C207.727 190.879 206.303 186.606 203.455 183.545C200.606 180.455 196.697 178.909 191.727 178.909C188.303 178.909 185.242 179.652 182.545 181.136C179.879 182.621 177.773 184.788 176.227 187.636C174.682 190.485 173.909 193.939 173.909 198V240H163.182V177H162.636V154H162.182ZM252.862 228.376L268.938 207.727H220.66C220.814 212.372 221.715 216.357 223.364 219.682C225.212 223.318 227.773 226.091 231.045 228C234.318 229.879 238.121 230.818 242.455 230.818C245.273 230.818 247.818 230.424 250.091 229.636C251.072 229.288 251.996 228.867 252.862 228.376ZM271.364 204.612L289.818 180.909V180.182H265.391C266.697 182.098 267.824 184.28 268.773 186.727C270.5 191.182 271.364 196.667 271.364 203.182V204.612ZM258 170.182H255.783C256.492 169.27 257.049 168.391 257.455 167.545H258V170.182ZM236.727 178.636C236.378 178.636 236.032 178.631 235.688 178.621C233.723 179.15 231.918 179.973 230.273 181.091C227.182 183.182 224.803 185.909 223.136 189.273C221.708 192.155 220.892 195.216 220.688 198.455H260.455C260.455 194.515 259.667 191 258.091 187.909C256.545 184.818 254.333 182.379 251.455 180.591C249.099 179.112 246.391 178.245 243.331 177.989C241.351 178.421 239.15 178.636 236.727 178.636ZM241.364 168.273C242.296 168.273 243.226 168.313 244.152 168.392C245.97 167.976 247.616 167.345 249.091 166.5C252.03 164.833 254.242 162.682 255.727 160.045C257.242 157.409 258 154.636 258 151.727V141.909C257.545 142.455 256.545 142.955 255 143.409C253.485 143.833 251.727 144.212 249.727 144.545C247.758 144.848 245.833 145.121 243.955 145.364C242.106 145.576 240.606 145.758 239.455 145.909C236.667 146.273 234.061 146.864 231.636 147.682C229.242 148.47 227.303 149.667 225.818 151.273C224.364 152.848 223.636 155 223.636 157.727C223.636 161.455 225.015 164.273 227.773 166.182C229.839 167.574 232.313 168.451 235.194 168.811C237.159 168.452 239.216 168.273 241.364 168.273ZM215.963 181.881C217.729 179.138 219.82 176.778 222.235 174.799C219.756 173.237 217.708 171.243 216.091 168.818C216.061 168.772 216.031 168.727 216.001 168.681C214.259 170.771 212.275 172.559 210.049 174.043C212.271 175.818 214.088 178.107 215.5 180.909C215.661 181.226 215.815 181.55 215.963 181.881ZM173 170.182H173.545V181.091H174.455C175.801 178.173 177.723 175.727 180.219 173.753C179.209 172.913 178.348 172.026 177.636 171.091C176.182 169.152 175.061 167.545 174.273 166.273H173V170.182ZM167.636 72.5455C165.545 72.5455 163.742 71.8333 162.227 70.4091C160.742 68.9848 160 67.2727 160 65.2727C160 63.2727 160.742 61.5606 162.227 60.1364C163.742 58.7121 165.545 58 167.636 58C169.727 58 171.515 58.7121 173 60.1364C174.515 61.5606 175.273 63.2727 175.273 65.2727C175.273 67.2727 174.515 68.9848 173 70.4091C171.515 71.8333 169.727 72.5455 167.636 72.5455ZM221.245 124.899C223.056 129.398 224.055 134.523 224.241 140.275C226.142 139.472 228.168 138.835 230.318 138.364C233.53 137.636 236.758 137.061 240 136.636C244.242 136.091 247.682 135.682 250.318 135.409C252.985 135.106 254.924 134.606 256.136 133.909C257.379 133.212 258 132 258 130.273V129.909C258 125.424 256.773 121.939 254.318 119.455C251.894 116.97 248.212 115.727 243.273 115.727C238.152 115.727 234.136 116.848 231.227 119.091C228.318 121.333 226.273 123.727 225.091 126.273L221.245 124.899ZM175.5 156.045C173.955 152.015 173.182 147.364 173.182 142.091C173.182 136.879 173.939 132.318 175.455 128.409C176.97 124.47 179.212 121.409 182.182 119.227C185.152 117.015 188.818 115.909 193.182 115.909C197.727 115.909 201.5 117.076 204.5 119.409C207.53 121.712 209.788 124.848 211.273 128.818C212.788 132.758 213.545 137.182 213.545 142.091C213.545 147.061 212.773 151.576 211.227 155.636C209.712 159.667 207.439 162.879 204.409 165.273C201.409 167.636 197.667 168.818 193.182 168.818C188.879 168.818 185.242 167.697 182.273 165.455C179.303 163.182 177.045 160.045 175.5 156.045Z" fill="black"/>
<path d="M22.017 242V60.1818H83.4517C97.6563 60.1818 109.316 62.6084 118.43 67.4616C127.545 72.2557 134.292 78.8549 138.672 87.2592C143.052 95.6636 145.241 105.222 145.241 115.935C145.241 126.647 143.052 136.147 138.672 144.433C134.292 152.719 127.575 159.229 118.519 163.964C109.464 168.639 97.893 170.977 83.8068 170.977H34.0909V151.091H83.0966C92.803 151.091 100.616 149.67 106.534 146.83C112.512 143.989 116.832 139.964 119.496 134.756C122.218 129.488 123.58 123.214 123.58 115.935C123.58 108.655 122.218 102.292 119.496 96.8473C116.773 91.4022 112.423 87.2 106.445 84.2408C100.468 81.2223 92.5663 79.7131 82.7415 79.7131H44.0341V242H22.017ZM107.599 160.324L152.344 242H126.776L82.7415 160.324H107.599Z" fill="black"/>
<path d="M41.1591 198.83V214.455H104.795V198.83H41.1591Z" fill="black"/>
</svg>
